<?xml version="1.0" standalone="no"?>
<!DOCTYPE svg PUBLIC "-//W3C//DTD SVG 20010904//EN"
 "http://www.w3.org/TR/2001/REC-SVG-20010904/DTD/svg10.dtd">
<svg version="1.0" xmlns="http://www.w3.org/2000/svg"
 width="512.000000pt" height="512.000000pt" viewBox="0 0 512.000000 512.000000"
 preserveAspectRatio="xMidYMid meet">
<metadata>
Created by potrace 1.16, written by Peter Selinger 2001-2019
</metadata>
<g transform="translate(0.000000,512.000000) scale(0.100000,-0.100000)"
fill="#000000" stroke="none">
<path d="M2722 4786 c12 -31 18 -59 15 -62 -3 -4 -29 8 -56 25 l-50 30 -5 -32
c-3 -18 -7 -56 -10 -85 -5 -48 -3 -53 12 -47 48 20 104 37 107 33 3 -2 -9 -26
-25 -52 -35 -55 -37 -66 -10 -66 27 0 28 -55 1 -69 -23 -13 -38 -1 -80 61 -62
93 -161 148 -267 148 -66 0 -105 -18 -132 -62 -43 -71 -34 -182 24 -288 l25
-47 -20 -34 c-22 -37 -46 -217 -31 -232 8 -9 860 -97 937 -97 l41 0 7 95 c7
90 5 129 -10 166 -4 10 9 34 35 65 95 115 108 274 25 328 -40 26 -117 37 -182
25 -76 -14 -125 -41 -189 -101 -62 -59 -89 -61 -89 -8 0 29 4 36 23 38 25 4
24 11 -4 81 -8 18 -14 35 -14 37 0 11 25 1 68 -26 l47 -29 7 37 c4 20 7 58 7
83 l1 47 -55 -21 c-31 -11 -58 -18 -61 -15 -3 3 9 29 27 57 17 29 30 54 28 55
-2 2 -41 7 -86 11 l-81 7 20 -56z m-317 -231 c59 -17 147 -76 165 -110 12 -22
10 -27 -21 -62 -19 -21 -41 -53 -48 -71 -13 -30 -16 -32 -65 -31 -94 2 -98 5
-124 94 -27 94 -23 156 11 180 26 18 23 18 82 0z m792 -91 c19 -25 10 -92 -23
-163 -37 -81 -46 -89 -102 -84 -81 7 -91 12 -98 41 -3 15 -19 51 -35 79 -16
29 -29 54 -29 57 0 11 78 60 123 77 65 24 144 21 164 -7z"/>
<path d="M2305 3859 c-336 -44 -559 -136 -732 -302 -136 -131 -203 -256 -203
-382 l0 -52 138 -7 c181 -9 1932 -9 2057 0 132 10 140 17 132 130 -9 146 -81
259 -236 373 -104 76 -186 116 -326 159 -176 55 -238 70 -323 78 -40 4 -72 11
-72 16 0 14 -294 6 -435 -13z"/>
<path d="M804 3165 c-4 -8 -4 -21 -1 -28 7 -19 131 -92 214 -127 79 -33 214
-63 227 -50 19 19 -163 124 -329 190 -85 34 -103 36 -111 15z"/>
<path d="M4130 3066 c-47 -19 -123 -55 -170 -82 -47 -26 -102 -57 -122 -68
-43 -24 -50 -46 -15 -46 80 0 240 62 360 138 47 30 57 41 55 61 -2 14 -7 26
-13 27 -5 2 -48 -12 -95 -30z"/>
<path d="M1907 3082 l-528 -2 -11 -26 c-26 -56 -75 -54 1141 -53 614 1 1127 4
1141 8 18 5 25 14 25 31 0 21 -6 25 -40 31 -49 9 -1018 15 -1728 11z"/>
<path d="M1613 2970 c-168 -6 -183 -11 -231 -81 -20 -28 -23 -44 -20 -90 5
-66 31 -108 85 -135 36 -18 80 -19 1058 -18 561 0 1037 4 1057 8 41 7 94 53
110 95 14 37 12 95 -5 128 -29 54 -70 83 -133 93 -60 9 -1639 9 -1921 0z"/>
<path d="M970 2864 c-247 -30 -394 -63 -405 -92 -9 -24 4 -49 28 -54 110 -21
567 59 606 106 21 25 -16 40 -107 42 -48 1 -103 0 -122 -2z"/>
<path d="M3871 2776 c-48 -17 -49 -32 -4 -54 55 -28 94 -37 313 -71 238 -36
308 -30 297 29 -6 36 -158 72 -393 95 -181 17 -169 17 -213 1z"/>
<path d="M1100 2635 c-133 -39 -305 -107 -332 -132 -10 -9 -18 -26 -16 -37 5
-34 58 -24 232 43 244 95 309 130 275 152 -21 13 -34 11 -159 -26z"/>
<path d="M1404 2615 c-34 -14 -44 -31 -44 -76 0 -32 38 -79 63 -79 8 0 59 -14
113 -31 90 -28 108 -30 194 -26 52 3 115 13 139 21 24 9 70 16 102 16 65 0
196 -25 216 -41 16 -14 146 -2 183 15 44 22 135 38 181 34 24 -3 82 -15 129
-28 97 -26 164 -23 268 10 80 25 162 25 243 0 109 -33 162 -34 269 -7 151 39
209 64 216 93 9 36 -3 72 -32 91 -25 16 -30 16 -88 0 -33 -9 -98 -26 -143 -38
l-81 -22 -89 28 c-111 36 -217 39 -313 8 -109 -36 -154 -37 -255 -6 -110 33
-208 34 -305 4 -84 -27 -152 -26 -226 1 -85 31 -233 31 -328 0 -90 -29 -136
-28 -243 7 -124 40 -134 41 -169 26z"/>
<path d="M3780 2579 c-12 -8 -9 -15 19 -39 56 -48 374 -176 452 -182 30 -3 34
0 37 23 4 38 -46 64 -258 136 -198 68 -230 76 -250 62z"/>
<path d="M1396 2345 c-29 -14 -41 -70 -27 -121 13 -50 78 -125 134 -158 87
-50 227 -76 442 -81 77 -1 152 -6 166 -10 18 -4 31 -1 42 9 20 20 27 20 27 0
0 -16 38 -16 473 -11 259 4 522 11 582 17 292 28 455 127 455 278 0 75 -3 76
-232 84 -328 10 -2038 5 -2062 -7z"/>
<path d="M865 2206 c-101 -33 -145 -58 -214 -122 -44 -40 -71 -77 -98 -132
-37 -75 -38 -78 -38 -191 0 -101 3 -124 25 -176 15 -37 32 -61 43 -63 10 -2
43 15 72 37 30 23 55 37 55 31 0 -14 -50 -142 -59 -153 -4 -4 -30 2 -57 14
-58 26 -168 31 -227 10 -88 -30 -150 -120 -150 -216 1 -208 259 -298 460 -159
l53 36 68 -40 c139 -82 230 -104 332 -78 105 27 175 89 225 199 l24 52 0 -38
c1 -55 24 -100 67 -133 33 -26 46 -29 108 -29 71 0 96 10 178 67 13 10 23 6
56 -24 45 -40 104 -55 169 -43 134 25 280 179 402 423 23 45 46 82 51 82 25 0
20 -52 -16 -141 -50 -126 -58 -236 -22 -289 13 -19 43 -45 68 -57 79 -41 148
-27 246 47 l53 40 23 -33 c29 -42 45 -53 92 -70 l38 -13 -58 -34 c-112 -67
-156 -162 -116 -252 11 -25 33 -55 50 -67 60 -42 176 -46 251 -7 52 27 116
111 161 210 l44 96 73 40 c40 23 109 69 151 104 l78 63 22 -33 c64 -98 217
-137 381 -99 179 43 322 176 440 413 23 45 46 82 51 82 5 0 13 -8 18 -17 7
-13 -2 -48 -31 -123 -53 -137 -62 -236 -25 -290 28 -42 98 -80 148 -80 105 0
209 79 308 233 72 112 74 119 56 146 -19 26 -71 54 -89 47 -8 -3 -45 -51 -83
-108 -70 -104 -97 -136 -108 -125 -4 3 14 67 40 141 25 74 46 141 46 147 0 7
-9 32 -20 55 -15 30 -44 59 -105 104 -47 35 -85 65 -85 67 0 2 7 20 15 40 24
56 19 69 -31 97 -56 31 -67 32 -110 6 -76 -48 -114 -152 -79 -219 14 -28 12
-33 -34 -127 -63 -129 -128 -215 -195 -259 -129 -86 -295 -87 -296 -2 0 15 10
17 78 17 181 0 298 83 338 240 14 55 15 72 4 110 -16 60 -81 123 -143 138
-198 50 -384 -58 -478 -277 -18 -42 -48 -101 -67 -131 -37 -58 -159 -186 -168
-177 -3 3 44 129 105 279 61 150 111 279 111 286 0 8 -26 12 -92 13 -148 3
-150 3 -169 -22 l-17 -23 -31 27 c-38 31 -85 42 -153 34 -121 -15 -221 -121
-299 -320 -24 -60 -115 -200 -153 -236 -26 -24 -26 -24 -26 -3 0 12 18 69 39
126 57 152 58 187 4 247 -20 22 -65 61 -100 86 -35 25 -63 49 -63 54 0 4 7 24
16 43 9 19 14 41 11 48 -3 8 -30 28 -60 44 l-56 29 -43 -31 c-78 -55 -109
-144 -74 -212 16 -31 16 -32 -42 -145 -71 -138 -111 -197 -175 -259 -95 -93
-91 -59 28 240 52 132 95 247 95 256 0 12 -19 15 -97 18 -162 5 -141 21 -218
-170 -74 -186 -128 -284 -182 -337 -75 -73 -72 -57 48 242 49 123 89 232 89
243 0 17 -10 19 -112 22 -69 2 -117 -1 -126 -8 -8 -6 -54 -109 -103 -230 -48
-120 -88 -217 -89 -214 -1 3 -3 23 -5 45 -5 68 -24 121 -60 173 l-34 50 45 28
c85 54 124 130 124 243 0 87 -22 149 -72 206 -53 60 -99 89 -192 120 -101 34
-230 34 -331 1z m126 -208 c-97 -37 -151 -105 -226 -283 -15 -36 -17 -38 -27
-21 -16 29 -13 117 6 154 51 99 164 170 271 171 25 0 22 -3 -24 -21z m193 -26
c23 -21 46 -73 46 -104 0 -41 -35 -91 -80 -115 -45 -24 -110 -31 -110 -12 0
19 60 98 79 104 29 9 32 29 11 91 -11 32 -20 61 -20 65 0 12 51 -9 74 -29z
m1996 -398 c21 -24 -63 -225 -113 -270 -39 -36 -74 -44 -83 -20 -15 39 54 201
113 266 38 43 63 50 83 24z m-2136 -53 c79 -44 118 -150 82 -220 -38 -73 -138
-93 -227 -44 -27 14 -49 29 -49 33 0 11 101 234 112 248 12 14 37 9 82 -17z"/>
<path d="M4175 1128 c-62 -51 -170 -103 -243 -119 -31 -6 -101 -9 -156 -7
-113 5 -166 23 -229 77 l-37 33 -42 -35 c-24 -19 -77 -55 -118 -79 -74 -44
-75 -45 -121 -139 -26 -52 -66 -116 -89 -142 -38 -43 -40 -47 -19 -43 160 35
569 51 714 27 180 -30 339 -85 418 -145 19 -14 38 -26 43 -26 9 0 174 434 174
457 0 7 -19 21 -43 31 -25 11 -61 40 -86 71 -39 46 -86 82 -108 81 -4 -1 -30
-19 -58 -42z"/>
<path d="M2130 1055 c-282 -98 -534 -141 -760 -131 -420 18 -468 26 -581 95
-27 17 -55 31 -62 31 -8 0 -31 -15 -51 -33 l-38 -32 11 -92 c30 -249 143 -414
353 -517 158 -78 218 -90 468 -90 178 0 235 4 334 22 245 45 500 114 895 240
l154 49 -50 17 c-94 31 -153 112 -153 208 0 62 19 107 71 170 39 46 41 50 25
66 -15 15 -18 15 -44 -1 -127 -82 -281 -80 -349 6 -16 21 -56 49 -65 46 -2 -1
-73 -25 -158 -54z"/>
<path d="M3435 671 c-63 -6 -67 -8 -45 -18 332 -149 652 -229 808 -202 85 15
94 23 57 53 -79 65 -235 125 -395 151 -107 17 -328 25 -425 16z"/>
</g>
</svg>
